<?xml version="1.0" encoding="utf-8"?>
<!-- Generator: Adobe Illustrator 23.0.6, SVG Export Plug-In . SVG Version: 6.00 Build 0)  -->
<svg version="1.1" id="Layer_1" xmlns="http://www.w3.org/2000/svg" xmlns:xlink="http://www.w3.org/1999/xlink" x="0px" y="0px"
	 viewBox="0 0 1200 1200" enable-background="new 0 0 1200 1200" xml:space="preserve">
<g>
	<path fill="#FFB229" d="M593.394,51.962C279.261,268.845,356.296,651.381,356.296,651.381
		c13.844,138.444,57.478,224.756,91.964,273.041c22.365,31.314,56.581,52.077,94.628,57.842l0,0
		c37.663,5.707,75.971,5.707,113.634,0l0,0c38.047-5.765,72.263-26.527,94.628-57.842c34.486-48.285,78.119-134.597,91.964-273.041
		c0,0,77.035-382.536-237.097-599.418C602.234,49.35,597.177,49.35,593.394,51.962z"/>
	
		<ellipse transform="matrix(0.7071 -0.7071 0.7071 0.7071 -138.6423 635.1763)" opacity="0.2" fill="#140402" cx="697.404" cy="484.944" rx="109.472" ry="109.472"/>
	<g>
		<circle fill="#F95C41" cx="689.954" cy="484.944" r="102.021"/>
		<circle fill="#F95C41" cx="689.954" cy="488.092" r="85.766"/>
		<circle opacity="0.2" fill="#140402" cx="689.954" cy="488.092" r="85.766"/>
		<circle fill="#5DC6C3" cx="680.327" cy="478.466" r="76.139"/>
		<path opacity="0.2" fill="#140402" d="M729.755,420.616c-9.343-7.986-20.619-13.78-33.056-16.506l-90.727,90.727
			c2.727,12.438,8.52,23.713,16.506,33.056L729.755,420.616z"/>
		<path opacity="0.2" fill="#140402" d="M756.461,478.29c-0.028-12.001-2.875-23.321-7.848-33.406L646.745,546.751
			c10.123,4.991,21.488,7.845,33.538,7.852C705.76,529.25,731.151,503.811,756.461,478.29z"/>
	</g>
	<path fill="#F95C41" d="M606.008,51.956c-3.778-2.608-8.828-2.608-12.606,0c-123.773,85.452-186.795,196.615-217.754,299.97
		c123.433-85.273,333.942-88.487,455.386,26.407C803.169,267.833,740.402,144.741,606.008,51.956z"/>
	<path fill="#4C0D46" d="M360.656,687.281c16.96,120.794,56.448,194.516,88.216,238.12c22.409,30.758,56.283,51.145,93.908,56.846
		l0.109,0.016c37.663,5.706,75.97,5.706,113.633,0l13.247-2.007c27.003-4.092,51.544-18.034,68.756-39.239
		c32.371-39.88,79.586-117.974,99.541-249.493c-18.039,8.8-32.388,19.271-50.108,29.154
		C677.707,782.163,483.449,782.498,360.656,687.281z"/>
	<path fill="#4C0D46" d="M360.656,687.281c16.96,120.794,56.448,194.516,88.216,238.12c22.409,30.758,56.283,51.145,93.908,56.846
		l0.109,0.016c37.663,5.706,75.97,5.706,113.633,0l13.247-2.007c27.003-4.092,51.544-18.034,68.756-39.239
		c32.371-39.88,79.586-117.974,99.541-249.493c-18.039,8.8-32.388,19.271-50.108,29.154
		C677.707,782.163,483.449,782.498,360.656,687.281z"/>
	<path fill="#FFB229" d="M422.041,883.126c9.11,16.503,18.252,30.499,26.831,42.275c22.408,30.758,56.283,51.145,93.908,56.846
		l0.109,0.017c37.663,5.706,75.97,5.706,113.633,0l13.247-2.007c27.003-4.092,51.544-18.034,68.756-39.239
		c11.065-13.632,23.864-31.735,36.716-54.904C661.164,930.206,534.086,936.644,422.041,883.126z"/>
	<path fill="#4C0D46" d="M775.242,886.113c24.747-44.613,49.691-108.025,62.825-194.589c-18.039,8.8-32.388,19.272-50.108,29.154
		c-110.251,61.485-304.509,61.82-427.302-33.397c12.38,88.172,36.763,151.24,61.385,195.845
		C534.086,936.644,661.164,930.206,775.242,886.113z"/>
	<path opacity="0.2" fill="#4C0B06" d="M609.566,54.49c0.009,0.277,0.037,0.56,0.037,0.834c3.607,54.113,2.918,107.689-1.3,160.892
		c-1.23,115.72-22.62,232.694-50.54,348.364c-25.592,113.999-67.189,226.2-134.208,320.399
		c8.403,15.257,16.794,28.365,24.706,39.442c22.365,31.315,56.581,52.077,94.628,57.842h0c37.663,5.707,75.971,5.707,113.634,0h0
		c38.047-5.765,72.263-26.527,94.628-57.842c34.486-48.285,78.119-134.597,91.964-273.041
		C843.114,651.381,919.507,271.799,609.566,54.49z"/>
	<g>
		<g>
			<path fill="#5DC6C3" d="M412.042,720.678l-51.386-33.397c0,0-83.008,113.363-87.165,259.67
				c-5.111,179.866-2.999,179.914-2.999,179.914L327.961,1150C327.961,1150,274.455,886.292,412.042,720.678z"/>
			<path opacity="0.2" fill="#140402" d="M412.042,720.678l-51.386-33.397c0,0-83.008,113.363-87.165,259.67
				c-5.111,179.866-2.999,179.914-2.999,179.914L327.961,1150C327.961,1150,274.455,886.292,412.042,720.678z"/>
			<path fill="#5DC6C3" d="M412.042,720.678C274.455,886.292,327.961,1150,327.961,1150l38.219-39.492
				c0-182.175,60.848-219.305,60.848-219.305L412.042,720.678z"/>
			<path opacity="0.2" fill="#140402" d="M427.028,891.203l-13.851-157.618c-67.967,109.168-92.35,256.961-49.268,379.27
				l2.271-2.347C366.18,928.332,427.028,891.203,427.028,891.203z"/>
		</g>
		<g>
			<path fill="#5DC6C3" d="M787.958,720.678l51.386-33.397c0,0,83.008,113.363,87.165,259.67
				c5.111,179.866,2.999,179.914,2.999,179.914L872.039,1150C872.039,1150,925.545,886.292,787.958,720.678z"/>
			<path opacity="0.2" fill="#140402" d="M787.958,720.678l51.386-33.397c0,0,83.008,113.363,87.165,259.67
				c5.111,179.866,2.999,179.914,2.999,179.914L872.039,1150C872.039,1150,925.545,886.292,787.958,720.678z"/>
			<path fill="#5DC6C3" d="M787.958,720.678C925.545,886.292,872.039,1150,872.039,1150l-38.219-39.492
				c0-182.175-60.848-219.305-60.848-219.305L787.958,720.678z"/>
		</g>
	</g>
	<g opacity="0.2">
		<path fill="#F2EFD0" d="M494.7,200.581c-30.057,19.605-45.573,58.741-55.781,91.617c-8.893,28.639-15.04,58.221-17.167,88.162
			c-1.884,26.528-3.693,59.165,11.006,82.708c6.034,9.665,16.992,17.032,28.313,15.742c18.764-2.139,30.873-22.701,39.847-37.037
			c10.732-17.144,19.762-35.307,27.593-53.942c11.723-27.893,20.778-56.808,29.08-85.875c7.42-25.98,17.853-55.184,7.183-81.798
			c-4.972-12.401-16.402-22.594-29.29-26.14C519.803,189.703,506.265,193.038,494.7,200.581z"/>
	</g>
</g>
</svg>
